<svg width="25" height="24" viewBox="0 0 25 24" fill="none" xmlns="http://www.w3.org/2000/svg">
<g clip-path="url(#clip0_132:1568)">
<path d="M8.30585 21.4639C17.2411 21.4639 22.1297 14.0593 22.1297 7.64008C22.1297 7.43192 22.125 7.21913 22.1158 7.01097C23.0668 6.32324 23.8874 5.47139 24.5393 4.49545C23.6536 4.88949 22.7132 5.14684 21.7503 5.25871C22.7642 4.65098 23.5233 3.69627 23.887 2.57157C22.9332 3.13682 21.8901 3.53556 20.8025 3.75069C20.0697 2.97202 19.1008 2.45645 18.0455 2.28369C16.9903 2.11093 15.9075 2.2906 14.9647 2.79492C14.0218 3.29924 13.2713 4.10012 12.8292 5.07375C12.3872 6.04737 12.2782 7.13951 12.5191 8.1813C10.5878 8.08439 8.6984 7.58269 6.97344 6.70874C5.24849 5.83478 3.72645 4.60808 2.506 3.10816C1.8857 4.17763 1.69589 5.44316 1.97514 6.64754C2.25439 7.85193 2.98175 8.9048 4.00939 9.59218C3.2379 9.56768 2.48331 9.35997 1.80796 8.98619V9.04633C1.80727 10.1687 2.19527 11.2566 2.90601 12.1252C3.61674 12.9938 4.60635 13.5895 5.7066 13.8109C4.99194 14.0065 4.24187 14.035 3.51443 13.8942C3.8249 14.8594 4.42896 15.7036 5.24232 16.309C6.05567 16.9143 7.03773 17.2507 8.05143 17.271C6.33046 18.6229 4.20456 19.3561 2.01612 19.3527C1.62802 19.3521 1.2403 19.3283 0.855042 19.2814C3.07825 20.7077 5.66445 21.4653 8.30585 21.4639Z" fill="white"/>
</g>
<defs>
<clipPath id="clip0_132:1568">
<rect width="23.6842" height="23.6842" fill="white" transform="translate(0.855225)"/>
</clipPath>
</defs>
</svg>
